<?xml version="1.0" standalone="no"?>
<!DOCTYPE svg PUBLIC "-//W3C//DTD SVG 20010904//EN"
 "http://www.w3.org/TR/2001/REC-SVG-20010904/DTD/svg10.dtd">
<svg version="1.0" xmlns="http://www.w3.org/2000/svg"
 width="1280.000000pt" height="1280.000000pt" viewBox="0 0 1280.000000 1280.000000"
 preserveAspectRatio="xMidYMid meet">

<g transform="translate(0.000000,1280.000000) scale(0.100000,-0.100000)"
fill="#000000" stroke="none">
<path d="M2580 6965 l0 -2075 413 2 412 3 5 1283 5 1282 1285 -1285 1285
-1285 147 0 148 0 0 2075 0 2075 -415 0 -415 0 0 -1297 0 -1298 -1298 1298
-1297 1297 -138 0 -137 0 0 -2075z"/>
<path d="M7142 6968 l3 -2073 412 -3 413 -2 2 896 3 897 777 -885 c427 -486
783 -890 791 -896 11 -9 147 -12 547 -10 l533 3 -974 1099 c-536 604 -975
1104 -977 1110 -1 6 359 443 801 971 l804 960 -456 3 c-251 1 -461 0 -467 -2
-6 -2 -319 -374 -695 -827 l-684 -823 -3 827 -2 827 -415 0 -415 0 2 -2072z"/>
<path d="M2470 4360 l0 -330 49 25 c137 69 460 132 916 179 705 73 1473 104
2740 113 1532 10 2647 -26 3480 -113 487 -50 747 -102 953 -191 9 -4 12 64 12
321 l0 326 -4075 0 -4075 0 0 -330z"/>
</g>
</svg>
